<svg width="435" height="145" viewBox="0 0 435 145" fill="none" xmlns="http://www.w3.org/2000/svg">
<g clip-path="url(#clip0_559_50)">
<path d="M122 4.27739V68.5638L116.479 71.7835L97.7751 82.6716L84.2954 90.511L61.224 103.927L61 103.805L38.1681 90.511L29.5035 85.4585H29.4855L24.2249 82.3942L5.98413 71.7835L0 68.3045V4L24.2249 18.1079V55.5473L29.0374 58.3679L52.5568 72.0428L61 76.958L61.224 77.0798L93.408 58.3679L97.7751 55.8247V45.7325L93.699 48.1045L84.7434 53.3153L61 67.1276V39.7622L61.224 39.6403L70.1796 34.4296L93.202 21.0321L97.7751 18.3671L122 4.27739Z" fill="#333333"/>
<path d="M122 77.842V104.637L97.7751 118.727L84.2439 126.602L61.224 140L61 139.86L38.2016 126.602L24.2249 118.467L0 104.36V77.5646L24.2249 91.6724L61 113.065L61.224 113.205L97.7751 91.9317L122 77.842Z" fill="#BE853E"/>
</g>
<path d="M225.455 56.9375C224.858 54.8636 224.02 53.0312 222.94 51.4403C221.861 49.821 220.54 48.4574 218.977 47.3494C217.443 46.2131 215.682 45.3466 213.693 44.75C211.733 44.1534 209.56 43.8551 207.173 43.8551C202.713 43.8551 198.793 44.9631 195.412 47.179C192.06 49.3949 189.446 52.6193 187.571 56.8523C185.696 61.0568 184.759 66.1989 184.759 72.2784C184.759 78.358 185.682 83.5284 187.528 87.7898C189.375 92.0511 191.989 95.304 195.369 97.5483C198.75 99.7642 202.741 100.872 207.344 100.872C211.52 100.872 215.085 100.134 218.04 98.6562C221.023 97.1506 223.295 95.0341 224.858 92.3068C226.449 89.5795 227.244 86.3551 227.244 82.6335L230.994 83.1875H208.494V69.2955H245.014V80.2898C245.014 87.9602 243.395 94.5511 240.156 100.062C236.918 105.545 232.457 109.778 226.776 112.761C221.094 115.716 214.588 117.193 207.259 117.193C199.077 117.193 191.889 115.389 185.696 111.781C179.503 108.145 174.673 102.989 171.207 96.3125C167.77 89.608 166.051 81.6534 166.051 72.4489C166.051 65.375 167.074 59.0682 169.119 53.5284C171.193 47.9602 174.091 43.2443 177.812 39.3807C181.534 35.517 185.866 32.5767 190.81 30.5597C195.753 28.5426 201.108 27.5341 206.875 27.5341C211.818 27.5341 216.42 28.2585 220.682 29.7074C224.943 31.1278 228.722 33.1449 232.017 35.7585C235.341 38.3722 238.054 41.483 240.156 45.0909C242.259 48.6705 243.608 52.6193 244.205 56.9375H225.455ZM258.874 116V28.7273H317.681V43.9403H277.326V64.7358H314.656V79.9489H277.326V100.787H317.852V116H258.874ZM332.351 28.7273H355.107L379.141 87.3636H380.163L404.197 28.7273H426.953V116H409.055V59.196H408.331L385.746 115.574H373.558L350.973 58.983H350.249V116H332.351V28.7273Z" fill="#333333"/>
<defs>
<clipPath id="clip0_559_50">
<rect width="122" height="136" fill="white" transform="translate(0 4)"/>
</clipPath>
</defs>
</svg>
