<svg width="344" height="572" viewBox="0 0 344 572" fill="none" xmlns="http://www.w3.org/2000/svg">
<g clip-path="url(#clip0_559_49)">
<path d="M338 0.750577V174.702L322.977 183.414L272.077 212.876L235.394 234.089L172.61 270.39L172 270.06L109.867 234.089L86.2882 220.417H86.2392L71.9235 212.126L22.2847 183.414L6 174.001V0L71.9235 38.1742V139.481L85.0199 147.113L149.023 184.116L172 197.416L172.61 197.745L260.192 147.113L272.077 140.232V112.923L260.984 119.342L236.613 133.441L172 170.816V96.7683L172.61 96.4386L196.981 82.339L259.632 46.0868L272.077 38.8757L338 0.750577Z" fill="#333333"/>
<path d="M338 199.808V272.312L272.077 310.437L235.254 331.748L172.61 368L172 367.621L109.958 331.748L71.9235 309.736L6 271.561V199.057L71.9235 237.231L172 295.117L172.61 295.496L272.077 237.933L338 199.808Z" fill="#BE853E"/>
</g>
<path d="M81.8182 462.172C81.0724 459.58 80.0249 457.289 78.6754 455.3C77.326 453.276 75.6747 451.572 73.7216 450.187C71.804 448.766 69.6023 447.683 67.1165 446.938C64.6662 446.192 61.9496 445.819 58.9666 445.819C53.3913 445.819 48.4908 447.204 44.2649 449.974C40.0746 452.744 36.8075 456.774 34.4638 462.065C32.12 467.321 30.9482 473.749 30.9482 481.348C30.9482 488.947 32.1023 495.411 34.4105 500.737C36.7188 506.064 39.9858 510.13 44.2116 512.935C48.4375 515.705 53.4268 517.09 59.1797 517.09C64.3999 517.09 68.8565 516.167 72.5497 514.32C76.2784 512.438 79.1193 509.793 81.0724 506.384C83.0611 502.974 84.0554 498.944 84.0554 494.292L88.7429 494.984H60.6179V477.619H106.268V491.362C106.268 500.95 104.244 509.189 100.195 516.078C96.147 522.932 90.5717 528.223 83.4695 531.952C76.3672 535.645 68.2351 537.491 59.0732 537.491C48.8459 537.491 39.8615 535.237 32.12 530.727C24.3786 526.181 18.3416 519.736 14.0092 511.391C9.71236 503.01 7.56392 493.067 7.56392 481.561C7.56392 472.719 8.84233 464.835 11.3991 457.911C13.9915 450.95 17.6136 445.055 22.2656 440.226C26.9176 435.396 32.3331 431.721 38.5121 429.2C44.6911 426.678 51.3849 425.418 58.5938 425.418C64.7727 425.418 70.5256 426.323 75.8523 428.134C81.179 429.91 85.902 432.431 90.0213 435.698C94.1761 438.965 97.5675 442.854 100.195 447.364C102.823 451.838 104.51 456.774 105.256 462.172H81.8182ZM123.593 536V426.909H197.101V445.925H146.657V471.92H193.319V490.936H146.657V516.984H197.314V536H123.593ZM215.439 426.909H243.883L273.926 500.205H275.204L305.247 426.909H333.691V536H311.319V464.995H310.414L282.182 535.467H266.948L238.716 464.729H237.811V536H215.439V426.909Z" fill="#333333"/>
<defs>
<clipPath id="clip0_559_49">
<rect width="332" height="368" fill="white" transform="translate(6)"/>
</clipPath>
</defs>
</svg>
